<!--?xml version="1.0" encoding="UTF-8" standalone="no"?-->
<svg id="Ebene_1" height="40px" data-name="Ebene 1" xmlns="http://www.w3.org/2000/svg" viewBox="0 0 399.72 119.31"><defs><style>.cls-1{fill:#656561;}.cls-2{fill:#ffe07d;}.cls-3{fill:#8cd0e4;}.cls-4{fill:#f6ac8f;}.cls-5{fill:#fc0;}.cls-6{fill:#e85031;}.cls-7{fill:#bfda9b;}.cls-8{fill:#8cc04f;}.cls-9{fill:#34b4c8;}</style></defs><title>iversity_logo-2016</title><path class="cls-1" d="M212.39,92.74a3.49,3.49,0,0,1,3.5-3.41,3.43,3.43,0,0,1,3.5,3.41,3.51,3.51,0,0,1-3.5,3.5A3.57,3.57,0,0,1,212.39,92.74Zm1.22,52.36V102.88h4.55v42.22h-4.55Z" transform="translate(-70.99 -60.31)"></path><path class="cls-1" d="M243.51,145.11l-17.83-42.22h5.07l15.39,36.89,15.21-36.89h5.16l-17.83,42.22h-5.16Z" transform="translate(-70.99 -60.31)"></path><path class="cls-1" d="M270.34,124c0-12.24,8.57-22.12,20.28-22.12,12.85,0,19.93,10.14,19.93,22.38v1.22H275.24c0.44,9.18,6.56,16.78,16.52,16.78a18.56,18.56,0,0,0,13.81-5.86l2.36,3a21.77,21.77,0,0,1-16.52,6.82C279.08,146.15,270.34,137,270.34,124Zm20.19-18.18c-10,0-14.95,8.74-15.3,16.08h30.68C305.83,114.68,301.11,105.77,290.54,105.77Z" transform="translate(-70.99 -60.31)"></path><path class="cls-1" d="M320.78,145.11V102.88h4.55v7.26c3.58-4.72,8.39-8.13,14.25-8.13v5a9.6,9.6,0,0,0-2.27-.17c-4.28,0-10.05,3.85-12,7.52v30.77h-4.55Z" transform="translate(-70.99 -60.31)"></path><path class="cls-1" d="M344.64,139.42l2.71-3.32A17.59,17.59,0,0,0,361,142.31c7.08,0,11.28-3.67,11.28-8.57,0-11.54-26.66-5-26.66-20.19,0-6.47,5.51-11.71,15-11.71,7.26,0,12.06,2.8,15.12,6.21l-2.54,3.23c-2.45-3.32-7-5.59-12.59-5.59-6.55,0-10.49,3.32-10.49,7.69,0,10.58,26.57,4.11,26.57,20.37,0,6.82-5.25,12.41-15.82,12.41C354.08,146.15,348.84,144.14,344.64,139.42Z" transform="translate(-70.99 -60.31)"></path><path class="cls-1" d="M387.48,92.74a3.49,3.49,0,0,1,3.5-3.41,3.43,3.43,0,0,1,3.5,3.41,3.51,3.51,0,0,1-3.5,3.5A3.56,3.56,0,0,1,387.48,92.74Zm1.22,52.36V102.88h4.55v42.22H388.7Z" transform="translate(-70.99 -60.31)"></path><path class="cls-1" d="M411.17,137V106.9h-7v-4h7V91.34h4.63v11.54h8.57v4h-8.57v29.37c0,3.41,1.4,5.77,4.37,5.77a6.59,6.59,0,0,0,4.72-2l1.75,3.5a9.49,9.49,0,0,1-7.17,2.62C413.88,146.15,411.17,142.75,411.17,137Z" transform="translate(-70.99 -60.31)"></path><path class="cls-1" d="M434.34,157.43a10.51,10.51,0,0,0,3.67.7c2.8,0,4.72-1.14,6.47-5.16l3.32-7.52-17.92-42.57H435l15.38,36.89,15.21-36.89h5.16l-21.86,51.49c-2.27,5.33-5.86,7.87-10.75,7.87a17.86,17.86,0,0,1-4.54-.61Z" transform="translate(-70.99 -60.31)"></path><path class="cls-2" d="M130.64,152.74h0a48.31,48.31,0,0,1-31.26-1.51,48.11,48.11,0,0,0,31.27,28.39,48.11,48.11,0,0,0,31.27-28.39,48.32,48.32,0,0,1-31.27,1.51h0Z" transform="translate(-70.99 -60.31)"></path><path class="cls-3" d="M130.64,87.2a48.29,48.29,0,0,1,31.27,1.5,48.1,48.1,0,0,0-31.27-28.39A48.11,48.11,0,0,0,99.37,88.7a48.29,48.29,0,0,1,31.27-1.5h0Z" transform="translate(-70.99 -60.31)"></path><path class="cls-4" d="M190.3,120A48.08,48.08,0,0,0,161.91,88.7a48.3,48.3,0,0,1,1.5,31.26h0a48.31,48.31,0,0,1-1.5,31.26A48.09,48.09,0,0,0,190.3,120h0Z" transform="translate(-70.99 -60.31)"></path><path class="cls-5" d="M163.41,120v0c-0.09.31-.2,0.61-0.3,0.92q-0.48,1.52-1.05,3c-0.15.38-.29,0.76-0.44,1.13q-0.74,1.79-1.64,3.53c-0.15.29-.32,0.58-0.48,0.87q-0.85,1.57-1.83,3.09c-0.13.2-.25,0.41-0.39,0.61-0.77,1.17-1.62,2.3-2.5,3.4l-0.57.69c-0.94,1.13-1.92,2.24-3,3.3l-0.17.15c-1,1-2,1.87-3,2.74l-0.87.72c-1.06.85-2.15,1.65-3.26,2.4-0.27.18-.55,0.34-0.82,0.51q-1.4.89-2.84,1.68c-0.35.19-.69,0.39-1,0.57q-1.68.86-3.41,1.58c-0.42.17-.84,0.33-1.26,0.5q-1.42.55-2.86,1c-0.34.11-.67,0.23-1,0.33h0a48.32,48.32,0,0,0,31.27-1.51,48.31,48.31,0,0,0,1.5-31.26h0Z" transform="translate(-70.99 -60.31)"></path><path class="cls-6" d="M130.64,87.2h0c0.31,0.09.61,0.2,0.91,0.29q1.53,0.48,3,1.06L135.72,89q1.8,0.75,3.55,1.65l0.84,0.46q1.6,0.87,3.15,1.86l0.58,0.36c1.17,0.78,2.3,1.62,3.42,2.51l0.69,0.57c1.13,0.94,2.23,1.91,3.29,3l0.07,0.08c1,1,1.94,2.07,2.84,3.14l0.68,0.83c0.86,1.08,1.67,2.17,2.42,3.3,0.17,0.25.32,0.52,0.49,0.77q0.91,1.42,1.71,2.89c0.19,0.34.38,0.67,0.55,1q0.87,1.69,1.59,3.43c0.17,0.41.33,0.83,0.49,1.25q0.54,1.41,1,2.84c0.11,0.35.24,0.69,0.34,1a48.3,48.3,0,0,0-1.5-31.26,48.29,48.29,0,0,0-31.27-1.5h0Z" transform="translate(-70.99 -60.31)"></path><path class="cls-7" d="M97.87,120A48.31,48.31,0,0,1,99.37,88.7,48.09,48.09,0,0,0,71,120a48.09,48.09,0,0,0,28.39,31.26A48.3,48.3,0,0,1,97.87,120h0Z" transform="translate(-70.99 -60.31)"></path><path class="cls-8" d="M130.64,152.74h0c-0.33-.1-0.66-0.22-1-0.32q-1.45-.46-2.88-1l-1.25-.49q-1.74-.73-3.43-1.59l-1-.56q-1.47-.8-2.88-1.7l-0.78-.49c-1.13-.75-2.22-1.57-3.3-2.43l-0.82-.68c-1.07-.89-2.12-1.83-3.13-2.83l-0.09-.08c-1-1-2-2.15-2.95-3.27l-0.62-.75c-0.87-1.09-1.7-2.2-2.46-3.34-0.16-.24-0.31-0.49-0.47-0.74q-0.92-1.43-1.72-2.91c-0.19-.34-0.38-0.68-0.56-1q-0.86-1.68-1.58-3.41c-0.18-.44-0.35-0.87-0.52-1.31-0.34-.89-0.66-1.79-0.95-2.7-0.12-.38-0.26-0.75-0.37-1.13a48.3,48.3,0,0,0,1.51,31.26,48.31,48.31,0,0,0,31.26,1.51h0Z" transform="translate(-70.99 -60.31)"></path><path class="cls-9" d="M97.87,120h0c0.1-.34.22-0.68,0.33-1q0.46-1.46,1-2.89c0.16-.4.31-0.81,0.47-1.21q0.73-1.76,1.61-3.47c0.17-.32.35-0.64,0.52-1q0.82-1.51,1.76-3c0.15-.23.29-0.47,0.44-0.7,0.76-1.14,1.59-2.25,2.46-3.34l0.63-.77c0.93-1.11,1.89-2.2,2.94-3.25h0c1-1,2.14-2,3.26-2.94l0.75-.62c1.09-.88,2.21-1.71,3.36-2.47l0.67-.42q1.49-1,3-1.79l0.93-.5q1.71-.88,3.48-1.62l1.2-.47q1.42-.55,2.87-1c0.35-.11.69-0.24,1-0.34a48.29,48.29,0,0,0-31.27,1.5A48.31,48.31,0,0,0,97.87,120h0Z" transform="translate(-70.99 -60.31)"></path></svg>